#!OML:ASF E:\Mandelcareful walks\Project 1\Capture day 1\Session 1\Subject1.ASF
:FULLY-SPECIFIED
:DEGREES
908
root 5.52427 16.9688 -1.53564 -138.251 -84.3725 141.414
lowerback -0.442308 -0.31396 -4.53951
upperback 3.30497 -0.366277 0.540889
thorax 3.69199 -0.346669 3.08941
lowerneck -17.5511 -7.04379 -11.2196
upperneck 30.0291 -7.61217 0.734969
head 13.6049 -4.73019 0.827838
rclavicle -1.10822e-014 -7.95139e-016
rhumerus -26.6794 -6.25238 -82.6616
rradius 28.1716
rwrist -7.80671
rhand -8.58332 -32.2164
rfingers 7.12502
rthumb 17.3475 -61.4622
lclavicle -1.10822e-014 -7.95139e-016
lhumerus -26.4221 0.620032 90.0832
lradius 26.1106
lwrist 8.05991
lhand -21.2702 -12.6636
lfingers 7.12502
lthumb 5.11348 17.2547
rfemur -4.30368 -4.25889 12.7375
rtibia 15.7234
rfoot -13.3993 -16.8051
rtoes 0.479824
lfemur -4.49861 0.743596 -15.4573
ltibia 18.7493
lfoot -15.9336 18.7456
ltoes -3.66174
909
root 5.52424 16.9749 -1.51635 -139.86 -84.2081 143.073
lowerback -0.785678 -0.357237 -4.62208
upperback 3.51982 -0.404633 0.56493
thorax 4.11562 -0.384318 3.15706
lowerneck -18.0283 -7.07865 -11.2459
upperneck 30.0509 -7.6118 0.857517
head 13.7223 -4.70545 0.86387
rclavicle 4.47266e-015 -2.78299e-015
rhumerus -26.2582 -6.46027 -82.6203
rradius 27.9726
rwrist -7.80838
rhand -8.18787 -31.6848
rfingers 7.12502
rthumb 17.7281 -60.8966
lclavicle 4.47266e-015 -2.78299e-015
lhumerus -25.9856 1.23957 89.8962
lradius 26.0882
lwrist 7.50719
lhand -21.3409 -12.6215
lfingers 7.12502
lthumb 5.04518 17.2984
rfemur -4.30181 -4.03927 12.7153
rtibia 15.5065
rfoot -13.2264 -16.8017
rtoes 0.236011
lfemur -4.53672 0.69889 -15.4871
ltibia 18.7808
lfoot -16.1123 18.7473
ltoes -2.80386
910
root 5.5221 16.9776 -1.49726 -140.053 -83.9599 143.273
lowerback -0.959695 -0.407879 -4.87499
upperback 3.59921 -0.45378 0.522163
thorax 4.30544 -0.42334 3.25144
lowerneck -18.2463 -7.06957 -11.2055
upperneck 30.0558 -7.60071 0.936348
head 13.7706 -4.68085 0.883344
rclavicle 2.83765e-014 4.37326e-015
rhumerus -26.0748 -6.50307 -82.7135
rradius 27.866
rwrist -7.80285
rhand -8.08298 -31.509
rfingers 7.12502
rthumb 17.829 -60.7117
lclavicle 2.83765e-014 4.37326e-015
lhumerus -25.8081 1.94476 89.6682
lradius 26.0956
lwrist 7.35073
lhand -21.2753 -12.6789
lfingers 7.12502
lthumb 5.10858 17.2395
rfemur -4.22416 -4.02192 12.4841
rtibia 15.2458
rfoot -13.0099 -16.6354
rtoes 0.437851
lfemur -4.52108 0.505508 -15.6989
ltibia 18.8113
lfoot -16.4739 18.8137
ltoes -0.990759
911
root 5.51519 16.982 -1.4773 -141.994 -83.8755 145.233
lowerback -0.920758 -0.454611 -4.79556
upperback 3.45019 -0.520652 0.522174
thorax 4.1325 -0.445315 3.20445
lowerneck -18.0379 -7.00245 -11.3008
upperneck 30.0753 -7.60076 1.20414
head 13.7507 -4.66266 1.01124
rclavicle 7.20594e-015 -8.74653e-015
rhumerus -26.3802 -6.4628 -82.7879
rradius 27.9566
rwrist -7.84711
rhand -8.18075 -31.3508
rfingers 7.12502
rthumb 17.7349 -60.5621
lclavicle 7.20594e-015 -8.74653e-015
lhumerus -26.1123 2.59154 89.3733
lradius 26.3071
lwrist 7.98219
lhand -20.7213 -12.6783
lfingers 7.12502
lthumb 5.64341 17.2265
rfemur -4.18771 -4.01584 12.5206
rtibia 15.1388
rfoot -12.9267 -16.4599
rtoes 0.624606
lfemur -4.41514 0.481893 -15.657
ltibia 18.7216
lfoot -16.6889 18.944
ltoes -0.530275
912
root 5.50875 16.9838 -1.45846 -143.74 -83.6525 146.937
lowerback -0.802025 -0.426219 -4.78285
upperback 3.31914 -0.488189 0.468685
thorax 3.92447 -0.419235 3.14452
lowerneck -17.943 -7.03779 -11.452
upperneck 30.197 -7.74755 1.54863
head 13.8173 -4.70411 1.14584
rclavicle 1.03368e-014 -1.63003e-014
rhumerus -26.7173 -6.81174 -82.7397
rradius 27.983
rwrist -8.00292
rhand -8.30842 -31.0786
rfingers 7.12502
rthumb 17.6121 -60.3009
lclavicle 1.03368e-014 -1.63003e-014
lhumerus -26.4243 3.57188 88.9149
lradius 26.6318
lwrist 9.29866
lhand -19.926 -12.7424
lfingers 7.12502
lthumb 6.41126 17.1406
rfemur -4.1199 -3.79063 12.4725
rtibia 15.0385
rfoot -12.8922 -16.415
rtoes 0.318437
lfemur -4.24798 0.545212 -15.717
ltibia 18.6716
lfoot -16.878 19.0801
ltoes -0.687438
913
root 5.50592 16.98 -1.44304 -144.499 -83.3215 147.628
lowerback -0.90326 -0.390717 -5.02935
upperback 3.43668 -0.42577 0.396872
thorax 4.10183 -0.40276 3.21024
lowerneck -18.0267 -7.3463 -11.8336
upperneck 30.0618 -8.25456 2.17527
head 13.8702 -4.87044 1.36066
rclavicle -1.46107e-014 1.59028e-014
rhumerus -26.6359 -7.56138 -82.6348
rradius 28.0791
rwrist -8.70287
rhand -8.06015 -31.2735
rfingers 7.12502
rthumb 17.851 -60.4742
lclavicle -1.46107e-014 1.59028e-014
lhumerus -26.2994 5.07103 88.318
lradius 26.9941
lwrist 11.7446
lhand -19.0049 -12.5167
lfingers 7.12502
lthumb 7.30043 17.3373
rfemur -4.00847 -3.44443 12.2929
rtibia 14.8425
rfoot -12.8243 -16.4531
rtoes 0.0774549
lfemur -4.11573 0.859202 -15.929
ltibia 18.722
lfoot -16.8835 19.2965
ltoes -1.78517
914
root 5.5064 16.9808 -1.42419 -146.304 -83.2072 149.486
lowerback -1.21209 -0.411296 -5.00368
upperback 3.64527 -0.435117 0.389353
thorax 4.4961 -0.422003 3.18512
lowerneck -17.5905 -7.6036 -12.206
upperneck 29.3473 -8.77187 2.95828
head 13.5785 -5.01307 1.6576
rclavicle 7.45443e-016 1.51076e-014
rhumerus -26.3514 -8.3987 -82.499
rradius 28.3668
rwrist -10.8632
rhand -7.40318 -31.4119
rfingers 7.12502
rthumb 18.483 -60.5538
lclavicle 7.45443e-016 1.51076e-014
lhumerus -26.0169 7.00111 87.6066
lradius 27.487
lwrist 15.251
lhand -18.5137 -11.3364
lfingers 7.12502
lthumb 7.7745 18.5007
rfemur -4.02686 -3.23945 12.3748
rtibia 14.6724
rfoot -12.6933 -16.4708
rtoes -0.0343815
lfemur -4.15434 1.13786 -15.879
ltibia 18.7913
lfoot -16.8679 19.4782
ltoes -2.3363
915
root 5.51519 16.9867 -1.40303 -148.478 -83.1253 151.726
lowerback -1.06651 -0.430433 -4.92251
upperback 3.59084 -0.473532 0.426933
thorax 4.35893 -0.434213 3.17761
lowerneck -17.2262 -7.83881 -12.4367
upperneck 28.9677 -9.21597 3.40461
head 13.421 -5.16807 1.80324
rclavicle 1.03368e-014 1.98785e-015
rhumerus -26.5307 -8.84102 -82.397
rradius 29.0605
rwrist -15.4328
rhand -7.34201 -31.3401
rfingers 7.12502
rthumb 18.5419 -60.4764
lclavicle 1.03368e-014 1.98785e-015
lhumerus -26.1398 9.7095 86.5781
lradius 28.1821
lwrist 17.7814
lhand -17.8537 -8.89744
lfingers 7.12502
lthumb 8.41151 20.9151
rfemur -4.05605 -2.93962 12.5375
rtibia 14.4054
rfoot -12.4591 -16.6482
rtoes -0.0241749
lfemur -4.29161 1.02003 -15.7215
ltibia 18.9549
lfoot -17.269 19.3881
ltoes -0.0523786
916
root 5.52038 16.9908 -1.38457 -149.827 -82.981 153.084
lowerback -0.631535 -0.420057 -5.00344
upperback 3.36161 -0.484881 0.474888
thorax 3.87527 -0.4254 3.27591
lowerneck -17.0744 -8.06037 -12.6089
upperneck 29.045 -9.5923 3.59878
head 13.4809 -5.33189 1.84021
rclavicle 1.80397e-014 1.11319e-014
rhumerus -27.2869 -8.99897 -82.2614
rradius 30.5254
rwrist -21.5712
rhand -7.43641 -32.1656
rfingers 7.12502
rthumb 18.4511 -61.3105
lclavicle 1.80397e-014 1.11319e-014
lhumerus -26.5996 11.5883 85.9363
lradius 28.8466
lwrist 22.2709
lhand -18.0051 -9.26905
lfingers 7.12502
lthumb 8.26544 20.5493
rfemur -3.91581 -2.61096 12.5699
rtibia 13.965
rfoot -12.2019 -16.8273
rtoes 0.0526892
lfemur -4.4147 0.947781 -15.6748
ltibia 19.201
lfoot -17.6502 19.2648
ltoes 1.79363
917
root 5.51496 16.9937 -1.36492 -151.419 -82.9568 154.716
lowerback -0.472343 -0.466033 -4.9358
upperback 3.21813 -0.558795 0.522996
thorax 3.64199 -0.451081 3.28656
lowerneck -16.989 -8.25849 -12.8079
upperneck 29.077 -9.96327 3.95729
head 13.5483 -5.47148 1.94499
rclavicle 2.10712e-014 1.66979e-014
rhumerus -28.2077 -9.32312 -82.0042
rradius 32.5558
rwrist -26.8701
rhand -6.51827 -34.3454
rfingers 7.12502
rthumb 19.3341 -63.4043
lclavicle 2.10712e-014 1.66979e-014
lhumerus -26.9318 13.0915 85.359
lradius 29.5707
lwrist 25.6486
lhand -17.8673 -9.45344
lfingers 7.12502
lthumb 8.39838 20.3596
rfemur -3.75993 -2.55678 12.6695
rtibia 13.5882
rfoot -11.9801 -16.763
rtoes -0.0657145
lfemur -4.5181 1.01331 -15.5568
ltibia 19.3744
lfoot -17.7993 19.2703
ltoes 1.89872
